<svg xmlns="http://www.w3.org/2000/svg" width="980" height="500" viewBox="0 0 980 500">
  <style>
    text { font-family: sans-serif; fill: #17202a; }
    .title { font-size: 24px; font-weight: 700; }
    .label { font-size: 14px; }
    .small { font-size: 12px; }
    .outline { fill: none; stroke: #17202a; stroke-width: 3; }
    .lens { fill: #cfe2f3; }
    .display { fill: #6fa8dc; }
    .pcb { fill: #6aa84f; }
    .component { fill: #8e7cc3; }
    .battery { fill: #f6b26b; }
    .case { fill: #777; }
    .space { fill: #fff; stroke: #aaa; stroke-dasharray: 4 3; }
  </style>
  <text x="35" y="38" class="title">V1 thickness budgets: regions are separate, not stacked together</text>
  <text x="35" y="62" class="small">Values are planning assumptions. Measure selected parts and printed case before release.</text>

  <g transform="translate(50 100)">
    <text x="0" y="-12" class="label">Display + rear-component region: 7.30 mm nominal</text>
    <rect class="outline" x="0" y="0" width="400" height="190" rx="8"/>
    <rect class="lens" x="20" y="15" width="360" height="12"/>
    <rect class="display" x="20" y="30" width="360" height="46"/>
    <rect class="space" x="20" y="78" width="360" height="6"/>
    <rect class="pcb" x="20" y="86" width="360" height="18"/>
    <rect class="component" x="150" y="106" width="140" height="55"/>
    <rect class="space" x="20" y="163" width="360" height="8"/>
    <rect class="case" x="20" y="173" width="360" height="17"/>
    <text x="28" y="25" class="small">lens 0.55 + adhesive 0.15</text>
    <text x="28" y="58" class="small">TFT 2.00</text>
    <text x="28" y="101" class="small">PCB 0.80</text>
    <text x="165" y="139" class="small">module max 2.40</text>
    <text x="28" y="186" class="small" fill="#fff">rear resin 0.90</text>
  </g>

  <g transform="translate(530 100)">
    <text x="0" y="-12" class="label">Battery region without display: 7.30 mm nominal</text>
    <rect class="outline" x="0" y="0" width="400" height="190" rx="8"/>
    <rect class="case" x="20" y="15" width="360" height="17"/>
    <rect class="pcb" x="20" y="34" width="360" height="18"/>
    <rect class="space" x="20" y="54" width="360" height="6"/>
    <rect class="battery" x="70" y="62" width="260" height="92"/>
    <rect class="space" x="20" y="156" width="360" height="14"/>
    <rect class="case" x="20" y="172" width="360" height="18"/>
    <text x="28" y="28" class="small" fill="#fff">front resin 0.80</text>
    <text x="28" y="49" class="small">PCB 0.80</text>
    <text x="125" y="112" class="small">LiPo 4.00</text>
    <text x="28" y="167" class="small">adhesive + swelling/clearance 0.80</text>
    <text x="28" y="186" class="small" fill="#fff">rear resin 0.90</text>
  </g>

  <text x="50" y="340" class="label">Target external maximum: 8.5 mm</text>
  <text x="50" y="368" class="small">Display region margin: 1.20 mm. Battery region margin: 1.20 mm.</text>
  <text x="50" y="392" class="small">TODO: VERIFY lens, adhesive, display tail, module shield, solder, cell swelling, insulation, resin warp and assembly tolerance.</text>
  <text x="50" y="416" class="small">A display-over-battery stack is prohibited even if a nominal arithmetic stack appears to fit.</text>
</svg>
